<svg id="Capa_1" data-name="Capa 1" xmlns="http://www.w3.org/2000/svg" viewBox="0 0 1366 768"><defs><style>.cls-1{fill:#ff351a;}.cls-2{fill:#ff7e27;}.cls-3{fill:#ffac27;}.cls-4{fill:#ff7f29;}.cls-5{fill:#ff8206;}</style></defs><title>background-1</title><ellipse class="cls-1" cx="1427.37" cy="794.5" rx="733.37" ry="766.5"/><path class="cls-2" d="M0,428V195s137,841,769,262c0,0-75,151-75,311H0Z"/><ellipse class="cls-3" cx="775.37" cy="713" rx="428.19" ry="432"/><path class="cls-4" d="M873.28,292.36C761.6,426.86,694,602.43,694,794.5c0,126.3,29.23,245.46,81,350.5h.37c236.48,0,428.18-193.41,428.18-432C1203.55,508.4,1062.57,337,873.28,292.36Z"/><path class="cls-5" d="M350.45,659.36A441.49,441.49,0,0,0,350.62,768H694c0-160,75-311,75-311C594.11,617.23,457.12,668.71,350.45,659.36Z"/></svg>