<svg xmlns="http://www.w3.org/2000/svg" xmlns:xlink="http://www.w3.org/1999/xlink" width="62" height="62" viewBox="0 0 62 62"><defs><style>.a{clip-path:url(#b);}.b{fill:#fe3d31;}.c{fill:#ffc300;}.d{fill:#fff;}</style><clipPath id="b"><rect width="62" height="62"/></clipPath></defs><g id="a" class="a"><path class="b" d="M0,21,1.787,24.5s14.133,2.762,9.828,17.87C12.834,44.722,13.4,45.94,13.4,45.94L42.237,31.157l11.128-5.929L51.5,21.816S37.533,18.5,41.594,3.447A26.873,26.873,0,0,0,39.844.01L27.008,6.774Z" transform="translate(0.586 12.131) rotate(-9)"/><path class="c" d="M3.477,7.639A3.341,3.341,0,0,1,.956,6.647,3.683,3.683,0,0,1,0,3.978a4.049,4.049,0,0,1,1.017-2.9A3.564,3.564,0,0,1,3.732,0,3.322,3.322,0,0,1,6.273.971,3.827,3.827,0,0,1,7.189,3.7,4,4,0,0,1,6.176,6.575,3.553,3.553,0,0,1,3.477,7.639ZM3.671,1.8q-1.493,0-1.493,2.076,0,1.963,1.421,1.963,1.452,0,1.452-2.045Q5.051,1.8,3.671,1.8ZM14.183.2,4.632,14.868h-2.5L11.667.2ZM12.608,15.073a3.341,3.341,0,0,1-2.521-.992,3.683,3.683,0,0,1-.956-2.669,4.049,4.049,0,0,1,1.017-2.9,3.564,3.564,0,0,1,2.715-1.074A3.338,3.338,0,0,1,15.41,8.4a3.8,3.8,0,0,1,.91,2.72A4.032,4.032,0,0,1,15.308,14,3.535,3.535,0,0,1,12.608,15.073Zm.164-5.839q-1.483,0-1.483,2.076,0,1.963,1.442,1.963t1.452-2.045a2.426,2.426,0,0,0-.389-1.472A1.216,1.216,0,0,0,12.772,9.234Z" transform="matrix(0.809, -0.588, 0.588, 0.809, 17.141, 31.591)"/><ellipse class="d" cx="1.675" cy="1.675" rx="1.675" ry="1.675" transform="translate(40.933 26.756) rotate(-9)"/><ellipse class="d" cx="1.675" cy="1.675" rx="1.675" ry="1.675" transform="translate(43.149 29.806) rotate(-9)"/><ellipse class="d" cx="1.675" cy="1.675" rx="1.675" ry="1.675" transform="translate(45.365 32.855) rotate(-9)"/><ellipse class="d" cx="1.675" cy="1.675" rx="1.675" ry="1.675" transform="translate(29.855 11.508) rotate(-9)"/><ellipse class="d" cx="1.675" cy="1.675" rx="1.675" ry="1.675" transform="translate(38.718 23.706) rotate(-9)"/><ellipse class="d" cx="1.675" cy="1.675" rx="1.675" ry="1.675" transform="translate(32.071 14.557) rotate(-9)"/><ellipse class="d" cx="1.675" cy="1.675" rx="1.675" ry="1.675" transform="translate(34.286 17.607) rotate(-9)"/><ellipse class="d" cx="1.675" cy="1.675" rx="1.675" ry="1.675" transform="translate(36.502 20.657) rotate(-9)"/></g></svg>