<?xml version="1.0" standalone="no"?>
<!DOCTYPE svg PUBLIC "-//W3C//DTD SVG 20010904//EN"
 "http://www.w3.org/TR/2001/REC-SVG-20010904/DTD/svg10.dtd">
<svg version="1.0" xmlns="http://www.w3.org/2000/svg"
 width="1365.000000pt" height="1365.000000pt" viewBox="0 0 1365.000000 1365.000000"
 preserveAspectRatio="xMidYMid meet">
<metadata>
Created by potrace 1.16, written by Peter Selinger 2001-2019
</metadata>
<g transform="translate(0.000000,1365.000000) scale(0.100000,-0.100000)"
fill="#000000" stroke="none">
<path d="M6440 13644 c-19 -2 -98 -8 -175 -14 -1357 -103 -2696 -643 -3764
-1518 -424 -348 -838 -781 -1161 -1217 -677 -912 -1118 -1982 -1274 -3091 -48
-338 -58 -474 -63 -870 -6 -401 2 -583 38 -899 209 -1848 1185 -3551 2679
-4671 823 -618 1763 -1039 2760 -1238 96 -19 199 -38 228 -42 l52 -7 0 2387 0
2386 -870 0 -870 0 0 990 0 990 870 0 869 0 3 933 c4 1013 4 999 64 1295 140
687 498 1224 1034 1555 41 25 131 73 200 106 319 154 658 235 1089 262 346 22
1026 -24 1566 -104 l150 -23 3 -841 2 -841 -522 -5 c-550 -4 -606 -8 -768 -56
-267 -77 -465 -240 -574 -472 -43 -90 -81 -220 -95 -323 -7 -49 -11 -335 -11
-782 l0 -704 946 0 946 0 -6 -28 c-9 -42 -296 -1925 -296 -1939 0 -10 -166
-13 -795 -13 l-795 0 0 -2386 0 -2386 48 6 c289 41 806 174 1142 293 1281 454
2378 1258 3193 2338 720 955 1175 2079 1321 3265 38 307 41 376 41 855 -1 513
-6 594 -61 975 -339 2360 -1896 4373 -4104 5310 -689 292 -1420 464 -2215 520
-126 9 -739 12 -825 4z"/>
</g>
</svg>
