<?xml version="1.0" standalone="no"?>
<!DOCTYPE svg PUBLIC "-//W3C//DTD SVG 20010904//EN"
 "http://www.w3.org/TR/2001/REC-SVG-20010904/DTD/svg10.dtd">
<svg version="1.0" xmlns="http://www.w3.org/2000/svg"
 width="1000.000000pt" height="1000.000000pt" viewBox="0 0 1000.000000 1000.000000"
 preserveAspectRatio="xMidYMid meet">
<metadata>
Created by potrace 1.16, written by Peter Selinger 2001-2019
</metadata>
<g transform="translate(0.000000,1000.000000) scale(0.100000,-0.100000)"
fill="#000000" stroke="none">
<path d="M4710 9579 c-850 -51 -1676 -341 -2370 -833 -392 -278 -806 -691
-1087 -1086 -122 -172 -247 -379 -331 -545 l-40 -81 771 -589 c425 -325 774
-589 777 -588 3 1 24 52 48 114 181 481 525 926 948 1228 728 519 1669 646
2499 336 261 -97 436 -197 747 -424 18 -14 62 28 684 650 365 365 664 669 664
675 0 25 -303 260 -515 400 -833 548 -1793 803 -2795 743z"/>
<path d="M5000 4950 l0 -880 1230 0 c1044 0 1230 -2 1230 -14 0 -26 -49 -201
-84 -303 -49 -139 -116 -284 -129 -276 -6 3 -7 1 -3 -5 22 -37 -332 -517 -366
-496 -6 4 -8 3 -5 -3 8 -12 -146 -147 -253 -222 -41 -29 -75 -56 -75 -61 0 -5
315 -253 700 -551 385 -297 709 -550 721 -560 20 -19 21 -19 39 1 10 11 23 17
29 13 6 -3 8 -3 4 2 -8 9 221 251 234 248 4 -2 7 1 5 6 -1 5 41 62 94 127 182
227 327 445 449 677 31 59 60 104 65 100 4 -5 5 -3 2 3 -9 15 67 176 78 167 4
-5 5 -3 2 3 -3 6 16 67 44 135 101 250 217 638 260 877 7 39 16 72 19 72 3 0
6 26 7 58 2 31 7 58 13 60 6 2 8 8 5 12 -3 5 4 87 15 182 64 549 52 971 -42
1408 l-21 100 -2133 0 -2134 0 0 -880z"/>
</g>
</svg>
