<svg xmlns="http://www.w3.org/2000/svg" viewBox="0 0 60.57 60.57"><defs><style>.cls-1,.cls-3{fill:#fff;}.cls-2{fill:#a5a5a5;stroke:#fff;stroke-miterlimit:10;stroke-width:3px;}.cls-3{opacity:0.47;}</style></defs><title>liquor</title><g id="Capa_2" data-name="Capa 2"><path class="cls-1" d="M34.7,34.12,47,31.28s5.35,10.35-2.68,12.9l-2.37.63S34.87,46.9,34.7,34.12Z"/><rect class="cls-1" x="14.24" y="21.98" width="16.1" height="37.93" rx="3.52"/><path class="cls-1" d="M19,1.47l.33,13.9s.33,2.64-3.64,6.06a4.14,4.14,0,0,0-1.43,3.94c.17,1.38,16.09,0,16.09,0s.23-2.73-1.65-4.16c0,0-3.75-2.87-3.53-6.07V1.47Z"/><rect class="cls-1" x="17.99" y="1.14" width="8.38" height="3.86" rx="1.93"/><rect class="cls-2" x="16.66" y="25.95" width="11.03" height="27.89"/><path class="cls-3" d="M34,28.37s-2.41,20.24,8.19,18L45.07,55s-4,.8-4.44,2.92l10.94-2.64a5.74,5.74,0,0,0-5.48-.48L44.4,45.9S55.77,44.17,45,26Z"/></g></svg>