<svg id="Capa_1" data-name="Capa 1" xmlns="http://www.w3.org/2000/svg" viewBox="0 0 1000 528"><defs><style>.cls-1{fill:#c68022;}.cls-2{fill:#ffb900;}.cls-3{fill:#333;}</style></defs><title>logoCotki</title><path class="cls-1" d="M488.74,71.23,251.6,158.5c-2.34.81-1.5,3.66.86,3.66L516.88,162c1.63,0,2.5-4.88,1.43-8L490.42,72.84C490,71.62,489.37,71,488.74,71.23Z"/><polygon class="cls-2" points="530.83 118.62 530.83 444.55 250.21 395.92 250.21 161.42 530.83 118.62"/><path class="cls-3" d="M595.6,370.05l3.54-55.7L603,204.79c.19-6.14.17-.7.17-6.94h26.77l-1.63,30.47L624.1,343.83l-.42,26.22-13.75-.29Q607.94,369.76,595.6,370.05Zm33.17-102.69,35.76-40.21,30.22-35.27c2.18-2.64,69.84-87.45,75.8-95h21.94l-123.09,156-11.94,13.74,7.82,10.07q2.55,3.25,35.66,42.83l42.62,50.49q-12.33-.29-16.29-.29-6.39,0-17.44.29l-14.05-19Z"/><path class="cls-3" d="M301.69,338.62c-10.78.9-19.88,26.59,5.59,28.2-18.61,3.78-56.83,6.71-72.32,6.71a127.83,127.83,0,0,1-40-6.31,89.72,89.72,0,0,1-33.52-19.49,78.36,78.36,0,0,1-20.76-31,110.66,110.66,0,0,1-6.52-38.27,124.33,124.33,0,0,1,7.23-42.09A87.89,87.89,0,0,1,163.31,202a93.55,93.55,0,0,1,35.44-21.12,134.66,134.66,0,0,1,43.43-7c16.25,0,48.43,3,64.59,6.39-12.75.31-23.54,16.38-6.64,28.19-10.17-7.53-27.19-12.88-34.56-14a143.56,143.56,0,0,0-21-1.63A101,101,0,0,0,212.28,198a72.61,72.61,0,0,0-27.35,16.51c-7.94,7.56-12.35,17-16.55,28s-5.26,22.37-5.26,34.28c0,11.05.24,20.76,3.6,30.68s7.22,19,14.17,25.89a70.53,70.53,0,0,0,24.73,15.73,89.7,89.7,0,0,0,32.17,5.46C252.81,354.54,285.2,340.46,301.69,338.62Z"/><path class="cls-3" d="M508.87,370.05l4.74-59.95,3.82-89.86,1.27-41.52Q484,178.86,458,180q.84-11.33,1-20,36,.15,77.65.14l45.34-.14H606q-1,12.57-1,20-22-1.28-48.61-1.27H544.79l-3,62.73-3,88.37v38.73H524.64A150.61,150.61,0,0,1,508.87,370.05Z"/><path class="cls-3" d="M756.68,368.55,758.8,336l3-67.88,2-66.9c.09-3.87.14-7.75.14-11.62l-.14-14.46,14.61.15,13.75-.15q-2.54,35.44-3.81,74-2.26,61.8-3.25,119.48l-13.33-.28Q769.16,368.27,756.68,368.55Z"/><circle class="cls-3" cx="307.28" cy="195.07" r="11.22"/><circle class="cls-3" cx="307.53" cy="352.07" r="11.65"/><path class="cls-3" d="M470.71,272c0,56.75-32.84,86.84-72.9,86.84-41.45,0-70.57-33.76-70.57-83.66,0-52.35,31-86.59,72.9-86.59C443,188.56,470.71,223.05,470.71,272ZM348.9,274.66c0,35.22,18.17,66.78,50.08,66.78,32.14,0,50.31-31.07,50.31-68.49,0-32.78-16.31-67-50.08-67C365.67,205.93,348.9,238.46,348.9,274.66Z"/></svg>