<svg id="Capa_1" data-name="Capa 1" xmlns="http://www.w3.org/2000/svg" xmlns:xlink="http://www.w3.org/1999/xlink" viewBox="0 0 1000 417.07"><defs><style>.cls-1{fill:#f2f0eb;}.cls-2{fill:url(#Degradado_sin_nombre_188);}.cls-3{fill:#fa0;}.cls-4{fill:#d88809;}.cls-5{fill:#1e1c1c;}.cls-6{fill:url(#Degradado_sin_nombre_11);}.cls-7{fill:#d6990f;}.cls-8{fill:url(#Degradado_sin_nombre_185);}.cls-9{fill:url(#Degradado_sin_nombre_186);}</style><linearGradient id="Degradado_sin_nombre_188" x1="325.86" y1="235.08" x2="325.86" y2="-842.88" gradientUnits="userSpaceOnUse"><stop offset="0" stop-color="#ff2c00"/><stop offset="0.01" stop-color="#f62a00"/><stop offset="0.05" stop-color="#c82300"/><stop offset="0.09" stop-color="#9d1b00"/><stop offset="0.14" stop-color="#771500"/><stop offset="0.2" stop-color="#570f00"/><stop offset="0.25" stop-color="#3b0a00"/><stop offset="0.32" stop-color="#250600"/><stop offset="0.4" stop-color="#140400"/><stop offset="0.49" stop-color="#090100"/><stop offset="0.63" stop-color="#020000"/><stop offset="1"/></linearGradient><linearGradient id="Degradado_sin_nombre_11" x1="181.13" y1="354.55" x2="174.53" y2="104.54" gradientUnits="userSpaceOnUse"><stop offset="0.94" stop-color="#ffb900"/><stop offset="0.95" stop-color="#fbb600"/><stop offset="0.95" stop-color="#edac00"/><stop offset="0.96" stop-color="#d79c00"/><stop offset="0.97" stop-color="#b98600"/><stop offset="0.98" stop-color="#916900"/><stop offset="0.99" stop-color="#614600"/><stop offset="0.99" stop-color="#281d00"/><stop offset="1"/></linearGradient><linearGradient id="Degradado_sin_nombre_185" x1="194.66" y1="252.89" x2="161.85" y2="543.53" gradientUnits="userSpaceOnUse"><stop offset="0" stop-color="#ff2c00"/><stop offset="0.28" stop-color="#fd2c00"/><stop offset="0.38" stop-color="#f62b00"/><stop offset="0.45" stop-color="#eb2800"/><stop offset="0.5" stop-color="#da2600"/><stop offset="0.55" stop-color="#c42200"/><stop offset="0.6" stop-color="#a81d00"/><stop offset="0.63" stop-color="#881700"/><stop offset="0.67" stop-color="#621100"/><stop offset="0.7" stop-color="#370900"/><stop offset="0.73" stop-color="#090200"/><stop offset="0.74"/></linearGradient><linearGradient id="Degradado_sin_nombre_186" x1="182.83" y1="133.62" x2="182.83" y2="-94.63" xlink:href="#Degradado_sin_nombre_188"/></defs><title>logo_cotki4</title><path class="cls-1" d="M796.61,329.26l3.24-51,3.49-100.39c.17-5.62.16-.64.16-6.36H828l-1.5,27.92-3.81,105.84-.38,24L809.73,329Q807.92,329,796.61,329.26ZM827,235.18l32.76-36.85L887.46,166c2-2.43,64-80.13,69.45-87.05H977l-112.78,143-10.94,12.59,7.16,9.23q2.34,3,32.68,39.24l39,46.26q-11.29-.25-14.93-.26-5.85,0-16,.26L888.4,311.85Z"/><path class="cls-1" d="M717.14,329.26l4.34-54.92L725,192,726.15,154q-31.8.13-55.68,1.17.78-10.38.91-18.31,33,.13,71.15.13l41.55-.13h22.07q-.9,11.52-.91,18.31Q785.11,154,760.7,154H750.05l-2.71,57.49-2.71,81v35.49h-13A137,137,0,0,1,717.14,329.26Z"/><path class="cls-1" d="M944.2,327.89,946.14,298l2.73-62.2,1.81-61.29c.08-3.55.13-7.1.13-10.65l-.13-13.25,13.38.13,12.61-.13q-2.34,32.48-3.5,67.79-2.07,56.63-3,109.47L958,327.63Q955.64,327.63,944.2,327.89Z"/><polygon class="cls-2" points="295.44 107.06 364.29 339.19 317.56 367.36 287.42 110.42 295.44 107.06"/><path class="cls-3" d="M359.85,341.86,296.39,117.39a12.67,12.67,0,0,0-9.38-10l11.25,252.39c0,1.57,18.57,7.08,20.54,7.57l36.06-22.49C355.65,344.45,360,342.46,359.85,341.86Z"/><path class="cls-4" d="M347.7,348.67,290.79,123.28c-1.17-6.74-13.81-8.89-15.93-9.16l28.51,243.56c0,1.57,16.63,7.35,18.6,7.84l20.74-13.84C343.5,351.26,347.86,349.27,347.7,348.67Z"/><circle class="cls-5" cx="267.91" cy="169.77" r="10.22"/><circle class="cls-5" cx="124.82" cy="169.99" r="10.62"/><path class="cls-6" d="M300.06,346.84,62.55,357.67A11.69,11.69,0,0,1,50.4,344.16L88.21,116.27a11.71,11.71,0,0,1,11.6-9.75H280.45a11.7,11.7,0,0,1,11.71,10.62l19.07,217.07A11.68,11.68,0,0,1,300.06,346.84Z"/><path class="cls-7" d="M127.63,106.52H97.79s-3.84,11.15,0,12.75l3.83,1.61h0s26.22,2.51,27.4-5.93Z"/><path class="cls-7" d="M283.24,106.76H253.4s-3.84,11.16,0,12.76l3.83,1.6h0s26.22,2.51,27.4-5.92Z"/><path class="cls-1" d="M101.34,111.82c1.69-51.57,33.38-78,91.08-76.13,55.09,1.8,91.15,41.84,89.3,98.57-.74,22.8-5.91,37-9.25,43.17l-18.35-6.3c4.47-8.82,8-21.48,8.52-36.68,1.4-42.89-24-72.25-70.25-73.76-43.08-1.4-68.35,9.19-69.8,53.71-.17,5.24,3.1,43.64,5.16,50.9.93,3.31-18.14,8.64-20.94,6.84C103.71,170.16,101.1,119.24,101.34,111.82Z"/><path class="cls-8" d="M329.81,367.36H48.27a13,13,0,0,1-12.86-15.27l33.79-195c1.09-6.25,6-22.64,12.33-22.64l203.67.73c6.45,0,9.45,4.22,10.42,10.6l34.19,221.57Z"/><path class="cls-9" d="M68.42,161.63s4.68-55.19,30.07-55.11c0,0-6.42,13.31,12,13.52,0,0,18.82,1.26,16.94-13.52H256.57s-3.52,14.22,13.91,13.59c0,0,14.71.84,12.76-13.35l12.2.3s-8.71-2.19,1.81,46.66Z"/><path class="cls-1" d="M216.39,277.77c-31.87,6.05-66.15-16.68-80.25-37.22,1.88,13.9,5.12,30,14.22,42.77,25,35.05,68.36,46,96.72,24.54,22.93-17.38,29.08-50.66,17.36-81.29C259.34,246.16,244.06,272.51,216.39,277.77Z"/><path class="cls-1" d="M212.88,180.06c26.52,18.67,35.29,43.42,21.74,88.15,9.08-7.24,25.39-28.35,27.75-43.82,7.87-51.61-27.46-74.25-50.4-78.63-34.92-6.68-78.25,17.3-85.31,40.07C145.14,177.57,188.52,162.91,212.88,180.06Z"/><path class="cls-1" d="M130.91,249.89c1.51-32.4,29.07-62.76,52.31-71.7a91.52,91.52,0,0,0-43.48,6.5c-39.91,16.23-54.35,53.7-46.33,88.38,8.21,35.57,57.3,50.06,89.81,45.78C161.87,316.68,129.59,278,130.91,249.89Z"/><path class="cls-1" d="M522.64,321.77c-7.66,3.83-23,7.66-42.59,7.66-45.45,0-79.66-28.71-79.66-81.58,0-50.48,34.21-84.69,84.21-84.69,20.09,0,32.77,4.31,38.27,7.18l-5,17c-7.89-3.83-19.14-6.7-32.53-6.7-37.8,0-62.92,24.16-62.92,66.5,0,39.47,22.73,64.83,62,64.83,12.68,0,25.6-2.63,34-6.7Z"/><path class="cls-1" d="M681.48,244.74c0,55.5-33.73,84.93-74.88,84.93-42.58,0-72.49-33-72.49-81.82,0-51.19,31.82-84.69,74.88-84.69C653,163.16,681.48,196.89,681.48,244.74Zm-125.12,2.63c0,34.45,18.66,65.31,51.44,65.31,33,0,51.67-30.38,51.67-67,0-32.06-16.75-65.55-51.43-65.55C573.59,180.15,556.36,212,556.36,247.37Z"/></svg>