<svg id="Capa_1" data-name="Capa 1" xmlns="http://www.w3.org/2000/svg" viewBox="0 0 1000 528"><defs><style>.cls-1{fill:#ffb900;}.cls-2{fill:#ff2c00;}.cls-3{fill:#f2f0eb;}.cls-4{fill:#fff;}</style></defs><title>logotipo_cotki--2</title><path class="cls-1" d="M509.24,37.52,204,149.87c-3,1-1.93,4.71,1.11,4.71l340.42-.22c2.09,0,3.21-6.27,1.83-10.29L511.4,39.59C510.87,38,510.05,37.24,509.24,37.52Z"/><polygon class="cls-2" points="563.43 98.53 563.43 518.13 202.16 455.52 202.16 153.63 563.43 98.53"/><path class="cls-3" d="M417.25,352.25c-37.75,7.17-78.37-19.76-95.06-44.08,2.23,16.46,6.06,35.57,16.84,50.65,29.68,41.52,81,54.54,114.58,29.07,27.16-20.58,34.44-60,20.56-96.29C468.12,314.81,450,346,417.25,352.25Z"/><path class="cls-3" d="M413.09,236.51c31.42,22.12,41.81,51.43,25.76,104.41,10.74-8.57,30.07-33.58,32.86-51.9,9.33-61.14-32.52-87.95-59.7-93.15C370.65,188,319.32,216.37,311,243.34,332.84,233.56,384.23,216.19,413.09,236.51Z"/><path class="cls-3" d="M316,319.23c1.79-38.38,34.43-74.35,62-84.94a108.38,108.38,0,0,0-51.51,7.7c-47.28,19.22-64.38,63.61-54.89,104.69C281.3,388.82,339.44,406,378,400.92,352.67,398.35,314.43,352.56,316,319.23Z"/><path class="cls-4" d="M660.23,422.21l4.55-71.71,4.91-141c.24-7.91.22-.92.22-8.94h34.46l-2.1,39.22-5.35,148.7-.54,33.76-17.71-.37Q676.11,421.84,660.23,422.21ZM702.92,290l46-51.78,38.91-45.39c2.8-3.41,89.91-112.58,97.58-122.31H913.7L755.23,271.42l-15.37,17.69,10.06,13q3.3,4.2,45.91,55.14l54.88,65q-15.87-.36-21-.37-8.22,0-22.45.37l-18.09-24.47Z"/><path class="cls-4" d="M238.43,381.76c-13.88,1.16-25.58,34.23,7.21,36.3-24,4.86-73.17,8.63-93.11,8.63a164.46,164.46,0,0,1-51.46-8.12,115.61,115.61,0,0,1-43.15-25.08,101.16,101.16,0,0,1-26.73-40,142.7,142.7,0,0,1-8.39-49.27,160.14,160.14,0,0,1,9.3-54.18,113,113,0,0,1,28.19-44.25q18.88-18.15,45.62-27.19a173.53,173.53,0,0,1,55.92-9c20.92,0,62.34,3.85,83.14,8.23-16.41.4-30.29,21.09-8.54,36.3-13.1-9.7-35-16.58-44.49-18a185.34,185.34,0,0,0-27-2.1,130.16,130.16,0,0,0-41.6,6.66A93.59,93.59,0,0,0,88.12,222c-10.22,9.73-15.9,21.86-21.31,36s-6.76,28.8-6.76,44.13c0,14.23.31,26.73,4.62,39.5S74,366.15,82.92,375a90.68,90.68,0,0,0,31.84,20.25q18.42,7,41.41,7C175.51,402.24,217.21,384.12,238.43,381.76Z"/><path class="cls-4" d="M535.16,422.21l6.1-77.17,4.92-115.68,1.64-53.46q-44.67.18-78.22,1.64,1.09-14.59,1.27-25.73,46.33.19,100,.19l58.38-.19h31Q658.94,168,659,177.54q-28.29-1.64-62.58-1.64h-15l-3.82,80.76-3.81,113.76v49.86H555.46C553.87,420.28,546,422,535.16,422.21Z"/><path class="cls-4" d="M890.89,420.28l2.73-42,3.82-87.4L900,204.8q.18-7.47.18-15L900,171.23l18.81.18,17.71-.18q-3.28,45.61-4.92,95.24-2.91,79.56-4.18,153.81l-17.16-.36Q907,419.92,890.89,420.28Z"/><circle class="cls-4" cx="242.78" cy="196.95" r="14.44"/><circle class="cls-4" cx="242.78" cy="399.06" r="14.99"/></svg>