<svg xmlns="http://www.w3.org/2000/svg" xmlns:xlink="http://www.w3.org/1999/xlink" width="210" height="65" viewBox="0 0 210 65"><defs><style>.a{clip-path:url(#f);}.b{fill:#333;}.c{fill:url(#a);}.d{fill:#fa0;}.e{fill:#d88809;}.f{fill:#1e1c1c;}.g{fill:url(#b);}.h{fill:#d6990f;}.i{fill:url(#c);}.j{fill:url(#d);}.k{fill:#f2f0eb;}</style><linearGradient id="a" x1="0.5" y1="0.492" x2="0.5" y2="-3.649" gradientUnits="objectBoundingBox"><stop offset="0" stop-color="#ff2c00"/><stop offset="0.01" stop-color="#f62a00"/><stop offset="0.05" stop-color="#c82300"/><stop offset="0.09" stop-color="#9d1b00"/><stop offset="0.14" stop-color="#771500"/><stop offset="0.2" stop-color="#570f00"/><stop offset="0.25" stop-color="#3b0a00"/><stop offset="0.32" stop-color="#250600"/><stop offset="0.4" stop-color="#140400"/><stop offset="0.49" stop-color="#090100"/><stop offset="0.63" stop-color="#020000"/><stop offset="1"/></linearGradient><linearGradient id="b" x1="0.501" y1="0.988" x2="0.476" y2="-0.008" gradientUnits="objectBoundingBox"><stop offset="0.94" stop-color="#ffb900"/><stop offset="0.95" stop-color="#fbb600"/><stop offset="0.95" stop-color="#edac00"/><stop offset="0.96" stop-color="#d79c00"/><stop offset="0.97" stop-color="#b98600"/><stop offset="0.98" stop-color="#916900"/><stop offset="0.99" stop-color="#614600"/><stop offset="0.99" stop-color="#281d00"/><stop offset="1"/></linearGradient><linearGradient id="c" x1="0.541" y1="0.509" x2="0.43" y2="1.756" gradientUnits="objectBoundingBox"><stop offset="0" stop-color="#ff2c00"/><stop offset="0.28" stop-color="#fd2c00"/><stop offset="0.38" stop-color="#f62b00"/><stop offset="0.45" stop-color="#eb2800"/><stop offset="0.5" stop-color="#da2600"/><stop offset="0.55" stop-color="#c42200"/><stop offset="0.6" stop-color="#a81d00"/><stop offset="0.63" stop-color="#881700"/><stop offset="0.67" stop-color="#621100"/><stop offset="0.7" stop-color="#370900"/><stop offset="0.73" stop-color="#090200"/><stop offset="0.74"/></linearGradient><linearGradient id="d" x1="0.5" y1="0.492" x2="0.5" y2="-3.65" xlink:href="#a"/><clipPath id="f"><rect width="210" height="65"/></clipPath></defs><g id="e" class="a"><g transform="translate(-1.21 -28.597)"><path class="b" d="M796.61,116.667l.489-7.685.527-15.127c.026-.847.024-.1.024-.958h3.7l-.226,4.207-.575,15.948-.057,3.616-1.9-.041Q798.318,116.628,796.61,116.667Zm4.588-14.176,4.946-5.553,4.182-4.871c.3-.366,9.663-12.074,10.485-13.117h3.033L806.818,100.5l-1.652,1.9,1.081,1.391q.353.452,4.934,5.913l5.888,6.97q-1.7-.038-2.254-.039-.883,0-2.416.039l-1.931-2.625Z" transform="translate(-646.445 -36.807)"/><path class="b" d="M677.516,165.908l.655-8.292.531-12.432.174-5.737q-4.8.02-8.406.177.118-1.567.137-2.764,4.982.02,10.742.02l6.273-.02h3.332q-.136,1.739-.137,2.764-3.039-.177-6.725-.177h-1.608l-.409,8.68-.409,12.229v5.358H679.7A20.687,20.687,0,0,1,677.516,165.908Z" transform="translate(-539.349 -86.049)"/><path class="b" d="M944.2,177.376l.293-4.513.412-9.391.273-9.253c.012-.536.02-1.072.02-1.608l-.02-2,2.02.02,1.9-.02q-.353,4.9-.528,10.235-.312,8.55-.453,16.528l-1.837-.036Q945.927,177.336,944.2,177.376Z" transform="translate(-771.752 -97.723)"/><path class="c" d="M288.631,107.06l10.395,35.047-7.055,4.253-4.551-38.792Z" transform="translate(-214.132 -60.748)"/><path class="d" d="M298.007,142.79l-9.581-33.89a1.913,1.913,0,0,0-1.416-1.51l1.7,38.106c0,.237,2.8,1.069,3.1,1.143l5.444-3.4C297.373,143.181,298.03,142.881,298.007,142.79Z" transform="translate(-213.783 -61.028)"/><path class="e" d="M285.857,149.532,277.265,115.5c-.177-1.018-2.085-1.342-2.405-1.383l4.3,36.772c0,.237,2.511,1.11,2.808,1.184l3.131-2.09C285.223,149.923,285.881,149.623,285.857,149.532Z" transform="translate(-203.468 -66.742)"/><circle class="f" cx="1.543" cy="1.543" r="1.543" transform="translate(68.8 54.282)"/><circle class="f" cx="1.603" cy="1.603" r="1.603" transform="translate(47.136 54.254)"/><path class="g" d="M87.97,142.8l-35.859,1.635a1.765,1.765,0,0,1-1.834-2.04l5.709-34.407a1.768,1.768,0,0,1,1.751-1.472H85.009a1.766,1.766,0,0,1,1.768,1.6L89.657,140.9A1.763,1.763,0,0,1,87.97,142.8Z" transform="translate(-12.773 -60.29)"/><path class="h" d="M100.846,106.52H96.341s-.58,1.683,0,1.925l.578.243h0s3.959.379,4.137-.9Z" transform="translate(-51.683 -60.232)"/><path class="h" d="M256.456,106.76h-4.505s-.58,1.685,0,1.926l.578.242h0s3.959.379,4.137-.894Z" transform="translate(-183.799 -60.436)"/><path class="b" d="M101.327,47.105c.255-7.786,5.04-11.776,13.751-11.494,8.317.272,13.762,6.317,13.482,14.882a15.314,15.314,0,0,1-1.4,6.518l-2.77-.951a13.489,13.489,0,0,0,1.286-5.538c.211-6.475-3.623-10.908-10.606-11.136-6.5-.211-10.319,1.387-10.538,8.109a65.362,65.362,0,0,0,.779,7.685c.14.5-2.739,1.3-3.161,1.033C101.685,55.913,101.291,48.226,101.327,47.105Z" transform="translate(-56.133)"/><path class="i" d="M79.688,169.614H37.182a1.963,1.963,0,0,1-1.942-2.305l5.1-29.441c.165-.944.906-3.418,1.862-3.418l30.75.11c.974,0,1.427.637,1.573,1.6l5.162,33.452Z" transform="translate(0 -84.003)"/><path class="j" d="M68.42,114.84s.707-8.333,4.54-8.32c0,0-.969,2.01,1.812,2.041,0,0,2.841.19,2.558-2.041h19.5s-.531,2.147,2.1,2.052c0,0,2.221.127,1.926-2.016l1.842.045s-1.315-.331.273,7.045Z" transform="translate(-28.196 -60.234)"/><path class="k" d="M148.256,234.3c-4.812.913-9.987-2.518-12.116-5.619a14.383,14.383,0,0,0,2.147,6.457c3.774,5.292,10.321,6.945,14.6,3.705,3.462-2.624,4.39-7.649,2.621-12.273C154.741,229.528,152.434,233.506,148.256,234.3Z" transform="translate(-85.692 -162.215)"/><path class="k" d="M139.677,149.973c4,2.819,5.328,6.555,3.282,13.309,1.371-1.093,3.833-4.28,4.19-6.616,1.188-7.792-4.146-11.21-7.609-11.871-5.272-1.009-11.814,2.612-12.88,6.05C129.45,149.6,136,147.384,139.677,149.973Z" transform="translate(-77.643 -92.605)"/><path class="k" d="M97.262,188.671c.228-4.892,4.389-9.475,7.9-10.825a13.818,13.818,0,0,0-6.565.981A11.252,11.252,0,0,0,91.6,192.171c1.24,5.37,8.651,7.558,13.559,6.912C101.937,198.755,97.063,192.915,97.262,188.671Z" transform="translate(-47.604 -120.795)"/><path class="b" d="M418.847,187.107a15.614,15.614,0,0,1-6.43,1.156c-6.862,0-12.027-4.335-12.027-12.317,0-7.621,5.165-12.786,12.714-12.786a13.045,13.045,0,0,1,5.778,1.084l-.755,2.567a11.438,11.438,0,0,0-4.911-1.012c-5.707,0-9.5,3.648-9.5,10.04,0,5.959,3.432,9.788,9.361,9.788a12.606,12.606,0,0,0,5.133-1.012Z" transform="translate(-310.046 -108.378)"/><path class="b" d="M556.36,175.477c0,8.379-5.093,12.823-11.305,12.823-6.429,0-10.944-4.982-10.944-12.353,0-7.729,4.8-12.786,11.305-12.786C552.06,163.16,556.36,168.253,556.36,175.477Zm-18.891.4c0,5.2,2.817,9.86,7.766,9.86,4.982,0,7.8-4.587,7.8-10.116,0-4.84-2.529-9.9-7.765-9.9C540.071,165.725,537.469,170.534,537.469,175.874Z" transform="translate(-423.577 -108.378)"/></g></g></svg>