<svg id="Capa_1" data-name="Capa 1" xmlns="http://www.w3.org/2000/svg" xmlns:xlink="http://www.w3.org/1999/xlink" viewBox="0 0 1319.71 1319.71"><defs><style>.cls-1{fill:url(#Degradado_sin_nombre_188);}.cls-2{fill:#fa0;}.cls-3{fill:#d88809;}.cls-4{fill:#1e1c1c;}.cls-5{fill:url(#Degradado_sin_nombre_11);}.cls-6{fill:#d6990f;}.cls-7{fill:#f2f0eb;}.cls-8{fill:url(#Degradado_sin_nombre_185);}.cls-9{fill:url(#Degradado_sin_nombre_186);}</style><linearGradient id="Degradado_sin_nombre_188" x1="1086.67" y1="772.14" x2="1086.67" y2="-2876.41" gradientUnits="userSpaceOnUse"><stop offset="0" stop-color="#ff2c00"/><stop offset="0.01" stop-color="#f62a00"/><stop offset="0.05" stop-color="#c82300"/><stop offset="0.09" stop-color="#9d1b00"/><stop offset="0.14" stop-color="#771500"/><stop offset="0.2" stop-color="#570f00"/><stop offset="0.25" stop-color="#3b0a00"/><stop offset="0.32" stop-color="#250600"/><stop offset="0.4" stop-color="#140400"/><stop offset="0.49" stop-color="#090100"/><stop offset="0.63" stop-color="#020000"/><stop offset="1"/></linearGradient><linearGradient id="Degradado_sin_nombre_11" x1="596.81" y1="1176.49" x2="574.49" y2="330.31" gradientUnits="userSpaceOnUse"><stop offset="0.94" stop-color="#ffb900"/><stop offset="0.95" stop-color="#fbb600"/><stop offset="0.95" stop-color="#edac00"/><stop offset="0.96" stop-color="#d79c00"/><stop offset="0.97" stop-color="#b98600"/><stop offset="0.98" stop-color="#916900"/><stop offset="0.99" stop-color="#614600"/><stop offset="0.99" stop-color="#281d00"/><stop offset="1"/></linearGradient><linearGradient id="Degradado_sin_nombre_185" x1="642.62" y1="832.43" x2="531.56" y2="1816.14" gradientUnits="userSpaceOnUse"><stop offset="0" stop-color="#ff2c00"/><stop offset="0.28" stop-color="#fd2c00"/><stop offset="0.38" stop-color="#f62b00"/><stop offset="0.45" stop-color="#eb2800"/><stop offset="0.5" stop-color="#da2600"/><stop offset="0.55" stop-color="#c42200"/><stop offset="0.6" stop-color="#a81d00"/><stop offset="0.63" stop-color="#881700"/><stop offset="0.67" stop-color="#621100"/><stop offset="0.7" stop-color="#370900"/><stop offset="0.73" stop-color="#090200"/><stop offset="0.74"/></linearGradient><linearGradient id="Degradado_sin_nombre_186" x1="602.59" y1="428.74" x2="602.59" y2="-343.82" xlink:href="#Degradado_sin_nombre_188"/></defs><title>logo-cotkito</title><polygon class="cls-1" points="983.74 338.83 1216.76 1124.5 1058.59 1219.88 956.59 350.2 983.74 338.83"/><path class="cls-2" d="M1201.74,1133.56,986.93,373.8C983,351,962.38,340.91,955.2,340l38,854.27c.12,5.3,62.87,24,69.53,25.63l122.06-76.13C1187.5,1142.33,1202.26,1135.6,1201.74,1133.56Z"/><path class="cls-3" d="M1160.62,1156.6,968,393.74c-3.94-22.83-46.72-30.09-53.9-31l96.5,824.4c.12,5.3,56.27,24.87,62.93,26.53l70.22-46.85C1146.38,1165.37,1161.14,1158.65,1160.62,1156.6Z"/><circle class="cls-4" cx="890.54" cy="551.1" r="34.6"/><circle class="cls-4" cx="406.22" cy="551.85" r="35.93"/><path class="cls-5" d="M999.35,1150.4l-803.9,36.67c-25.26,1.16-45.19-21-41.09-45.72L282.3,370a39.68,39.68,0,0,1,39.27-33H933a39.63,39.63,0,0,1,39.64,36l64.53,734.68A39.52,39.52,0,0,1,999.35,1150.4Z"/><path class="cls-6" d="M415.73,337h-101s-13,37.76,0,43.18l13,5.43h0s88.72,8.49,92.74-20.06Z"/><path class="cls-6" d="M942.43,337.83h-101s-13,37.76,0,43.19l13,5.42h0s88.72,8.5,92.74-20.05Z"/><path class="cls-7" d="M326.77,355c5.69-174.56,113-264,308.26-257.68,186.45,6.09,308.52,141.59,302.25,333.61-2.51,77.17-20,125.35-31.3,146.13l-62.11-21.34C859,525.82,871,483,872.69,431.54,877.43,286.38,791.33,187,634.92,181.89,489.12,177.13,403.6,213,398.69,363.66c-.58,17.75,10.5,147.74,17.45,172.29,3.17,11.2-61.38,29.24-70.89,23.17C334.77,552.42,326,380.08,326.77,355Z"/><path class="cls-8" d="M1100.06,1219.88H147.14a44.17,44.17,0,0,1-43.52-51.71L218,508.21c3.67-21.17,20.24-76.65,41.72-76.65L949.07,434c21.83,0,32,14.3,35.27,35.88l115.72,750Z"/><path class="cls-9" d="M215.33,523.55S231.16,336.72,317.11,337c0,0-21.73,45.07,40.56,45.78,0,0,63.72,4.25,57.36-45.78H852.17s-11.92,48.14,47.08,46c0,0,49.79,2.83,43.18-45.18l41.31,1s-29.49-7.42,6.11,157.92Z"/><path class="cls-7" d="M716.16,916.62c-107.85,20.48-223.91-56.45-271.6-126,6.36,47,17.31,101.63,48.11,144.73,84.8,118.64,231.38,155.83,327.38,83.07,77.6-58.81,98.4-171.45,58.74-275.13C861.53,809.64,809.82,898.83,716.16,916.62Z"/><path class="cls-7" d="M704.28,585.92c89.76,63.2,119.46,147,73.6,298.34,30.7-24.48,85.91-95.94,93.9-148.31,26.65-174.69-92.92-251.29-170.58-266.14C583,447.2,436.35,528.38,412.45,605.45,475,577.49,621.82,527.86,704.28,585.92Z"/><path class="cls-7" d="M426.83,822.27C432,712.61,525.23,609.83,603.9,579.58c-47.22-4.73-98.1,2-147.17,22-135.09,54.93-184,181.77-156.83,299.13,27.82,120.4,194,169.47,304,155C531.65,1048.34,422.38,917.5,426.83,822.27Z"/></svg>