<svg id="Capa_1" data-name="Capa 1" xmlns="http://www.w3.org/2000/svg" viewBox="0 0 1000 417.07"><defs><style>.cls-1{fill:#ffb900;}.cls-2{fill:#fa0;}.cls-3{fill:#d88809;}.cls-4{fill:#ff2c00;}.cls-5{fill:#333;}.cls-6{fill:#f2f0eb;}</style></defs><title>logo_cotki4-3</title><path class="cls-1" d="M455.36,21,217.08,108.68c-2.36.81-1.51,3.68.87,3.68l265.7-.17c1.63,0,2.51-4.9,1.43-8l-28-81.56C456.63,21.38,456,20.77,455.36,21Z"/><path class="cls-2" d="M469.92,29.89,228.93,98c-7.24,1.25-10.44,7.79-10.73,10.07L489.17,96c1.69,0,7.61-19.94,8.13-22.06L473.16,35.25C472.71,34.41,470.57,29.73,469.92,29.89Z"/><path class="cls-3" d="M477.23,42.94l-242,61.11c-7.24,1.25-19.28,5.29-19.57,7.57L486.91,90.53c1.69,0,7.89-17.85,8.42-20L480.47,48.3C480,47.45,477.88,42.77,477.23,42.94Z"/><polygon class="cls-4" points="497.66 68.61 497.66 396.12 215.68 347.25 215.68 111.62 497.66 68.61"/><path class="cls-5" d="M562.75,321.25l3.55-56,3.83-110.08c.19-6.17.17-.71.17-7h26.9l-1.64,30.62L591.38,294.9,591,321.25,577.14,321Q575.15,321,562.75,321.25Zm33.32-103.18L632,177.66l30.38-35.43c2.18-2.66,70.17-87.88,76.16-95.47h22.05L636.9,203.56l-12,13.8,7.86,10.12q2.57,3.27,35.83,43l42.83,50.73Q699,321,695.05,321q-6.42,0-17.52.28l-14.13-19.1Z"/><path class="cls-5" d="M267.41,289.68c-10.84.9-20,26.71,5.62,28.33-18.7,3.79-57.11,6.74-72.68,6.74a128.21,128.21,0,0,1-40.16-6.34,90.21,90.21,0,0,1-33.68-19.58,78.86,78.86,0,0,1-20.86-31.19,111.18,111.18,0,0,1-6.55-38.45,125,125,0,0,1,7.26-42.29,88.29,88.29,0,0,1,22-34.54A93.85,93.85,0,0,1,164,131.14a135.43,135.43,0,0,1,43.65-7c16.33,0,48.66,3,64.89,6.42-12.81.32-23.64,16.46-6.67,28.34-10.22-7.58-27.32-12.94-34.72-14A145.16,145.16,0,0,0,210,143.17a101.72,101.72,0,0,0-32.47,5.2A73.21,73.21,0,0,0,150.08,165c-8,7.6-12.41,17.07-16.63,28.13s-5.28,22.48-5.28,34.44c0,11.11.24,20.86,3.61,30.83s7.27,19.13,14.24,26a70.86,70.86,0,0,0,24.86,15.8,90,90,0,0,0,32.32,5.49C218.3,305.67,250.85,291.52,267.41,289.68Z"/><path class="cls-5" d="M475.6,321.25,480.36,261l3.83-90.29L485.47,129q-34.86.13-61.05,1.28.85-11.39,1-20.08,36.16.15,78,.14L549,110.2h24.2q-1,12.63-1,20.08Q550.14,129,523.37,129H511.69l-3,63-3,88.79v38.92h-14.3A152.34,152.34,0,0,1,475.6,321.25Z"/><path class="cls-5" d="M724.6,319.75,726.73,287l3-68.21,2-67.22q.15-5.84.15-11.68l-.15-14.52,14.68.14,13.83-.14q-2.57,35.6-3.84,74.33-2.26,62.1-3.26,120.06l-13.4-.29Q737.15,319.46,724.6,319.75Z"/><circle class="cls-5" cx="273.03" cy="145.43" r="11.27"/><circle class="cls-5" cx="273.28" cy="303.18" r="11.7"/><path class="cls-6" d="M404.59,268.08c-30.47,5.78-63.25-15.95-76.72-35.58,1.8,13.29,4.89,28.71,13.59,40.88,24,33.51,65.35,44,92.47,23.47,21.92-16.62,27.79-48.43,16.59-77.72C445.65,237.86,431,263.05,404.59,268.08Z"/><path class="cls-6" d="M401.23,174.67C426.59,192.52,435,216.18,422,258.94c8.67-6.92,24.27-27.1,26.52-41.89,7.53-49.34-26.24-71-48.18-75.18-33.38-6.38-74.8,16.55-81.56,38.32C336.47,172.29,377.94,158.27,401.23,174.67Z"/><path class="cls-6" d="M322.87,241.43c1.44-31,27.79-60,50-68.55a87.6,87.6,0,0,0-41.57,6.21c-38.16,15.52-52,51.34-44.3,84.5,7.86,34,54.79,47.86,85.87,43.77C352.47,305.28,321.61,268.33,322.87,241.43Z"/></svg>