<svg xmlns="http://www.w3.org/2000/svg" viewBox="0 0 56 62"><defs><style>.cls-1{fill:#ff6948;}</style></defs><title>apple</title><g id="Capa_2" data-name="Capa 2"><path class="cls-1" d="M24.91,19.16c-2.87-1.41-7.3-2.89-11.45-1.34a5.82,5.82,0,0,0-1.12.55C9.79,20,1,26.91,7,45c0,0,3,12,14,12a7.81,7.81,0,0,0,5-2s1.8-1.8,6.24,1.42a6.82,6.82,0,0,0,4.82,1.27A9.39,9.39,0,0,0,43,54s10-9,8-25c0,0-2-15-16-11a25,25,0,0,0-4.27,1.32A6.93,6.93,0,0,1,24.91,19.16Z"/><path class="cls-1" d="M27,15S24,4,38,4C38,4,40,16,27,15Z"/></g></svg>