<svg xmlns="http://www.w3.org/2000/svg" viewBox="0 0 56 62"><defs><style>.cls-1{fill:#333333;}</style></defs><title>bazar</title><g id="Capa_2" data-name="Capa 2"><path class="cls-1" d="M5.92,40.52a.91.91,0,0,0,.8.48H11V54.1a.9.9,0,0,0,.9.9H45.1a.9.9,0,0,0,.9-.9V41h4.55a.91.91,0,0,0,.8-.48.89.89,0,0,0-.05-.93L45.84,31.4a.88.88,0,0,0-.74-.4h-3s-.89.5-.89,1,.89,1,.89,1h2.7l4,6H35l-4-6h3.1s.9-.5.9-1-.9-1-.9-1H12.17a.91.91,0,0,0-.75.4L6,39.59A.89.89,0,0,0,5.92,40.52ZM13,41H23.49a.89.89,0,0,0,.74-.39L28,35.09V53H13Zm21.51,0H45V53H30V35.09l3.77,5.52A.89.89,0,0,0,34.51,41ZM12.87,33H26.75l-4,6H8.87Z"/><path class="cls-1" d="M23.47,11.25a4.78,4.78,0,0,0-4-2.25,5,5,0,0,0-4.94,5.12c0,3.11,2.52,5.15,6.32,8.23.67.55,1.36,1.1,2.09,1.72a1,1,0,0,0,.58.2.92.92,0,0,0,.57-.2c.73-.62,1.42-1.17,2.09-1.72,3.81-3.08,6.32-5.12,6.32-8.23A5,5,0,0,0,27.51,9,4.77,4.77,0,0,0,23.47,11.25Zm7.18,2.87c0,2.25-2.25,4.08-5.65,6.84l-1.53,1.25L21.93,21c-3.4-2.76-5.65-4.59-5.65-6.84a3.16,3.16,0,0,1,3.14-3.32c2.35,0,3.15,2.61,3.18,2.72a.91.91,0,0,0,.87.65.9.9,0,0,0,.86-.65s.81-2.72,3.18-2.72a3.16,3.16,0,0,1,3.14,3.32Z"/><path class="cls-1" d="M39.64,27a.94.94,0,0,0,.59-.22l1.39-1.2c2.5-2.13,4.31-3.67,4.31-6a3.69,3.69,0,0,0-3.6-3.85,3.33,3.33,0,0,0-2.69,1.35,3.33,3.33,0,0,0-2.7-1.35,3.69,3.69,0,0,0-3.59,3.85c0,2.29,1.8,3.83,4.3,6,.45.38.91.77,1.4,1.2A.94.94,0,0,0,39.64,27Zm-4.49-7.38a1.9,1.9,0,0,1,1.79-2.05c1.33,0,1.81,1.62,1.83,1.7a.91.91,0,0,0,.87.66.89.89,0,0,0,.86-.66c0-.07.51-1.7,1.83-1.7a1.9,1.9,0,0,1,1.8,2.05c0,1.46-1.38,2.64-3.67,4.59l-.82.7-.82-.7c-2.29-1.95-3.67-3.13-3.67-4.59Z"/><circle class="cls-1" cx="38.11" cy="32" r="0.9"/></g></svg>