<svg xmlns="http://www.w3.org/2000/svg" viewBox="0 0 56 62"><defs><style>.cls-1{fill:#333333;}</style></defs><title>Book</title><g id="Capa_2" data-name="Capa 2"><path class="cls-1" d="M51,40.24V5a1,1,0,0,0-1-1H10A4,4,0,0,0,6,8V51.52a4,4,0,0,0,4,4H50a1,1,0,0,0,1-1V40.24ZM19.69,17.09H40.58a.6.6,0,0,1,.6.6v2.07a.6.6,0,0,1-.6.6H19.69a.6.6,0,0,1-.6-.6V17.69A.6.6,0,0,1,19.69,17.09Zm0,6.55H40.58a.6.6,0,0,1,.6.6v2.07a.6.6,0,0,1-.6.6H19.69a.6.6,0,0,1-.6-.6V24.24A.6.6,0,0,1,19.69,23.64ZM47,49H15.49a3.28,3.28,0,1,1-.06-6.55L47,42C46,44,45,45,47,49Z"/></g></svg>