<svg xmlns="http://www.w3.org/2000/svg" viewBox="0 0 56 62"><defs><style>.cls-1{fill:#333333;}</style></defs><title>candy</title><g id="Capa_2" data-name="Capa 2"><path class="cls-1" d="M37,2.94a16.42,16.42,0,0,0-21.43,8.91c-1.28,3.11-.88,6.06.13,9,2.42,7.08,17.08,7,17.08,7l.06,0a10.83,10.83,0,0,0,5.9-5.93,11.06,11.06,0,0,0,0-8.51A8.57,8.57,0,0,0,27.51,8.77l-.06,0a6.25,6.25,0,0,0-2.61,2,6.63,6.63,0,0,0-.9,6.67,5,5,0,0,0,6.53,2.74l-.09,0a3.28,3.28,0,0,0,1.21-.8,4.07,4.07,0,0,0,.84-4.4,2.9,2.9,0,0,0-3.82-1.58,1.33,1.33,0,0,1-1.31-.1,1.47,1.47,0,0,1,.21-2.6,5.83,5.83,0,0,1,7.61,3.16,7,7,0,0,1-1.31,7.43,6.24,6.24,0,0,1-2.28,1.58l.12-.05a7.92,7.92,0,0,1-10.32-4.3,9.61,9.61,0,0,1,1.46-9.84,9,9,0,0,1,3.6-2.62l-.05,0a11.47,11.47,0,0,1,15,6.22,14,14,0,0,1,0,10.76,13.81,13.81,0,0,1-7.49,7.52h0S23.71,32.32,19.36,30a15.7,15.7,0,0,0,2,1.63,1.77,1.77,0,0,0-.75.13,1.71,1.71,0,0,0-.92.93,1.75,1.75,0,0,0,0,1.31,1.68,1.68,0,0,0,.93.92,1.66,1.66,0,0,0,1.31,0h0L12.31,58.25a1.72,1.72,0,0,0,.93,2.24,1.7,1.7,0,0,0,1.31,0,1.76,1.76,0,0,0,.93-.93l9.63-23.37v0a1.7,1.7,0,0,0,.93.93,1.71,1.71,0,0,0,2.23-2.24,1.88,1.88,0,0,0-.43-.61A16.42,16.42,0,0,0,37,2.94Z"/></g></svg>