<svg xmlns="http://www.w3.org/2000/svg" viewBox="0 0 56 62"><defs><style>.cls-1{fill:#333333;}.cls-2{fill:#333;}</style></defs><title>cop</title><g id="Capa_2" data-name="Capa 2"><path class="cls-1" d="M28.1,35.17,3.17,7.31A2.73,2.73,0,0,1,5.24,2.76l46.37.46a2.73,2.73,0,0,1,2,4.59Z"/><rect class="cls-1" x="24.77" y="30.22" width="6.6" height="30.53" transform="translate(0.46 -0.28) rotate(0.57)"/><path class="cls-1" d="M18.14,55.8h19.6a5.05,5.05,0,0,1,5.05,5.05v0a0,0,0,0,1,0,0H13.09a0,0,0,0,1,0,0v0A5.05,5.05,0,0,1,18.14,55.8Z" transform="matrix(1, 0.01, -0.01, 1, 0.58, -0.28)"/><polygon class="cls-2" points="50.23 6.6 28.25 27.74 8.66 6.47 50.23 6.6"/><polygon class="cls-1" points="45.72 13.06 27.63 34.7 12.72 12.73 45.72 13.06"/></g></svg>