<svg xmlns="http://www.w3.org/2000/svg" viewBox="0 0 36 36"><defs><style>.cls-1{fill:#333333;}</style></defs><title>drops</title><g id="Capa_2" data-name="Capa 2"><rect class="cls-1" x="10.87" y="18" width="6.9" height="1" rx="0.5"/><rect class="cls-1" x="19.73" y="18" width="6.9" height="1" rx="0.5"/><rect class="cls-1" x="28.1" y="18" width="6.9" height="1" rx="0.5"/><rect class="cls-1" x="2" y="18" width="6.9" height="1" rx="0.5"/><rect class="cls-1" x="12.03" y="9.82" width="6.9" height="1" rx="0.5" transform="translate(3.53 -3.94) rotate(16.35)"/><rect class="cls-1" x="20.54" y="12.32" width="6.9" height="1" rx="0.5" transform="translate(4.58 -6.23) rotate(16.35)"/><rect class="cls-1" x="28.58" y="14.67" width="6.9" height="1" rx="0.5" transform="translate(5.56 -8.4) rotate(16.35)"/><rect class="cls-1" x="3.53" y="7.33" width="6.9" height="1" rx="0.5" transform="translate(2.48 -1.65) rotate(16.35)"/><rect class="cls-1" x="11.98" y="25.98" width="6.9" height="1" rx="0.5" transform="translate(-5.75 4.33) rotate(-13.5)"/><rect class="cls-1" x="20.6" y="23.91" width="6.9" height="1" rx="0.5" transform="translate(-5.03 6.29) rotate(-13.5)"/><rect class="cls-1" x="28.74" y="21.95" width="6.9" height="1" rx="0.5" transform="translate(-4.35 8.13) rotate(-13.5)"/><rect class="cls-1" x="3.36" y="28.05" width="6.9" height="1" rx="0.5" transform="translate(-6.47 2.38) rotate(-13.5)"/></g></svg>