<svg xmlns="http://www.w3.org/2000/svg" viewBox="0 0 56 62"><defs><style>.cls-1{fill:#333333;}</style></defs><title>meat</title><g id="Capa_2" data-name="Capa 2"><path class="cls-1" d="M36.38,18.93S16.83,5.7,3,33.88c0,0-9.77,18.4,24.15,16.68,0,0,31.06,2.3,20.13-19A17.29,17.29,0,0,0,44.43,27a17.78,17.78,0,0,0-4.6,6.32s-3.45,13.23-17.25,8.63c0,0-7.47-4-6.9-9.78H18s2.3,10.35,12.65,7.48a9.52,9.52,0,0,0,5.75-5.75s2.3-6.33,5.75-9.2c0,0,3.45-4,6.33-1.73,0,0,4,2.88,6.33-2.3,0,0,1.72-5.75-4.6-5.75h-.58s1.73-1.72,0-5.17c0,0-2.88-3.45-6.33-.58a6.86,6.86,0,0,0-1.5,2.59,5,5,0,0,0-.14,1.89,3.72,3.72,0,0,1-1.23,3S37.53,19.5,36.38,18.93Z"/></g></svg>