<svg xmlns="http://www.w3.org/2000/svg" viewBox="0 0 56 62"><defs><style>.cls-1{fill:#333333;}</style></defs><title>pets</title><g id="Capa_2" data-name="Capa 2"><ellipse class="cls-1" cx="20.03" cy="17.07" rx="5.86" ry="8.2" transform="translate(-3.59 5.47) rotate(-14.29)"/><ellipse class="cls-1" cx="36.68" cy="17.06" rx="8.14" ry="5.79" transform="translate(9.95 47.43) rotate(-73.6)"/><ellipse class="cls-1" cx="8.31" cy="28.16" rx="5.34" ry="6.51" transform="translate(-12.97 7.93) rotate(-30)"/><ellipse class="cls-1" cx="48.38" cy="28.06" rx="6.55" ry="5.56" transform="translate(-0.11 55.93) rotate(-60)"/><path class="cls-1" d="M10.27,51.78S5,47,16,35.1c0,0,9.66-11,17.56-5.71,0,0,13.17,8.78,14,18.88,0,0,.43,7-10.1,5.26a28.13,28.13,0,0,1-5.71-1.75,9.52,9.52,0,0,0-6.58,0S20.8,54,17.29,54c0,0-4.39.44-7-2.19Z"/></g></svg>