<svg xmlns="http://www.w3.org/2000/svg" viewBox="0 0 56 62"><defs><style>.cls-1{fill:#333333;}</style></defs><title>piece</title><g id="Capa_2" data-name="Capa 2"><path class="cls-1" d="M49.52,30c-3.71,0-5.33,2.83-7.35,2.83-5.37,0-.48-15.79-.48-15.79s-17.58,7.17-17.58-.3c0-3.2,3.25-4.14,3.25-7.7,0-3.18-2.52-4.9-5.5-4.9s-5.95,1.69-5.95,5.05c0,3.7,2.84,5.31,2.84,7.32C18.75,22.75,3,19.08,3,19.08V48.92s16,3.68,16-2.56c0-2-3.58-3.59-3.58-7.3C15.42,35.71,18,34,21.11,34s5.54,1.73,5.54,4.9c0,3.56-3.26,4.5-3.26,7.71,0,5.44,11.62,2.3,16.24,2.3,0,0-3.11-10.76,2.31-10.76,3.22,0,4.16,3.24,7.73,3.24,3.19,0,4.92-2.51,4.92-5.51S52.89,30,49.52,30Z"/></g></svg>