<svg xmlns="http://www.w3.org/2000/svg" viewBox="0 0 56 62"><defs><style>.cls-1{fill:#333333;}.cls-2,.cls-3{fill:#333;}.cls-3{stroke:#e2e0e0;stroke-miterlimit:10;stroke-width:0.5px;}</style></defs><title>snacks</title><g id="Capa_2" data-name="Capa 2"><path class="cls-1" d="M48.83,54a1.51,1.51,0,0,1-2.47,1.48,2.77,2.77,0,0,0-2-.78C42,54.66,42,57,39.59,57s-2.39-2.34-4.78-2.34S32.42,57,30,57s-2.39-2.34-4.78-2.34S22.85,57,20.46,57s-2.39-2.34-4.78-2.34a2.8,2.8,0,0,0-2,.78A1.5,1.5,0,0,1,11.21,54a9.54,9.54,0,0,1,1.41-3.45V10.92A9.55,9.55,0,0,1,11.2,7.43,1.5,1.5,0,0,1,13.69,6a2.8,2.8,0,0,0,2,.79,2.84,2.84,0,0,0,2-.84c.74-.68,1.31-1.51,2.74-1.51,2.39,0,2.39,2.35,4.78,2.35S27.63,4.48,30,4.48s2.39,2.35,4.78,2.35,2.39-2.35,4.78-2.35S42,6.83,44.37,6.83a2.79,2.79,0,0,0,2-.79,1.5,1.5,0,0,1,2.49,1.39,9.66,9.66,0,0,1-1.41,3.49V50.56A9.53,9.53,0,0,1,48.83,54Z"/><path class="cls-2" d="M27.77,35.23c-3.83,1.28-10,0-10.07-5.68s6.55-2.29,6.55-2.29Z"/><path class="cls-3" d="M19.56,26.37c2.68-.46,4.71,3.08,7,6.78s8.1,5.16,11.84,2.05,5.32-8.55.73-11.8-7.46,4.13-11.41,4.33-4-2.73-8.11-1.36Z"/></g></svg>