<svg xmlns="http://www.w3.org/2000/svg" viewBox="0 0 915.75 316.81"><defs><style>.cls-1{fill:#eaeded;stroke:#333;stroke-miterlimit:10;stroke-width:4px;}.cls-2{fill:#333;}.cls-3{fill:#ff2c00;}</style></defs><title>iphone</title><g id="Capa_2" data-name="Capa 2"><rect class="cls-1" x="21.56" y="12" width="886.9" height="289.8" rx="46.93"/><path class="cls-2" d="M148.33,249.67s-25.65-10-43.93-60.34c0,0-23.2-65.85,20.95-93.86,0,0,20.79-13.42,38.22-5.45,0,0,12.59,7.11,17.88,7.11,0,0,7.37,2,26.54-6.9,0,0,35.76-14,58.85,18.28,0,0-28,15.61-22.4,49.39,0,0,4.06,24.8,28.22,34.85,0,0-16.89,48.86-40.3,55.59,0,0-9.3,4.49-26-3.53a33.37,33.37,0,0,0-26.46-2.4S155.16,253.75,148.33,249.67Z"/><path class="cls-2" d="M185.45,85.58S181.05,44.84,228,35.79C228,35.79,229.62,83.34,185.45,85.58Z"/><path class="cls-3" d="M372.76,102.13c0,13.92-8.46,21.3-18.78,21.3-10.68,0-18.18-8.28-18.18-20.52,0-12.84,8-21.24,18.78-21.24C365.62,81.67,372.76,90.13,372.76,102.13Zm-31.38.66c0,8.64,4.68,16.38,12.9,16.38s13-7.62,13-16.8c0-8-4.2-16.44-12.9-16.44S341.38,93.91,341.38,102.79Z"/><path class="cls-3" d="M379.12,122.77c.12-2,.24-4.92.24-7.5V80.17h5.22V98.41h.12c1.86-3.24,5.22-5.34,9.9-5.34,7.2,0,12.3,6,12.24,14.82,0,10.38-6.54,15.54-13,15.54-4.2,0-7.56-1.62-9.72-5.46h-.18l-.24,4.8Zm5.46-11.64a9.89,9.89,0,0,0,.24,1.92,8.15,8.15,0,0,0,7.92,6.18c5.52,0,8.82-4.5,8.82-11.16,0-5.82-3-10.8-8.64-10.8a8.42,8.42,0,0,0-8,6.48,10.41,10.41,0,0,0-.3,2.16Z"/><path class="cls-3" d="M419.86,85.39v8.34h7.56v4h-7.56v15.66c0,3.6,1,5.64,4,5.64a11.75,11.75,0,0,0,3.06-.36l.24,4a12.93,12.93,0,0,1-4.68.72,7.32,7.32,0,0,1-5.7-2.22c-1.5-1.56-2-4.14-2-7.56V97.75h-4.5v-4h4.5v-7Z"/><path class="cls-3" d="M435.94,109.21c.12,7.14,4.68,10.08,10,10.08a19.09,19.09,0,0,0,8-1.5l.9,3.78a23.52,23.52,0,0,1-9.66,1.8c-8.94,0-14.28-5.88-14.28-14.64s5.16-15.66,13.62-15.66c9.48,0,12,8.34,12,13.68a19.91,19.91,0,0,1-.18,2.46Zm15.48-3.78c.06-3.36-1.38-8.58-7.32-8.58-5.34,0-7.68,4.92-8.1,8.58Z"/><path class="cls-3" d="M463.06,101.59c0-3-.06-5.46-.24-7.86h4.68l.3,4.8h.12a10.68,10.68,0,0,1,9.6-5.46c4,0,10.26,2.4,10.26,12.36v17.34H482.5V106c0-4.68-1.74-8.58-6.72-8.58a7.5,7.5,0,0,0-7.08,5.4,7.59,7.59,0,0,0-.36,2.46v17.46h-5.28Z"/><path class="cls-3" d="M496.36,80.17h5.28v42.6h-5.28Z"/><path class="cls-3" d="M526.6,122.77l-.42-3.66H526a10.82,10.82,0,0,1-8.88,4.32c-5.88,0-8.88-4.14-8.88-8.34,0-7,6.24-10.86,17.46-10.8v-.6c0-2.4-.66-6.72-6.6-6.72a14.47,14.47,0,0,0-7.56,2.16l-1.2-3.48a18,18,0,0,1,9.54-2.58c8.88,0,11,6.06,11,11.88v10.86a40.89,40.89,0,0,0,.48,7ZM525.82,108c-5.76-.12-12.3.9-12.3,6.54a4.67,4.67,0,0,0,5,5,7.23,7.23,0,0,0,7-4.86,5.51,5.51,0,0,0,.3-1.68Z"/><path class="cls-3" d="M555.1,109.21c.12,7.14,4.68,10.08,10,10.08a19.09,19.09,0,0,0,8-1.5l.9,3.78a23.52,23.52,0,0,1-9.66,1.8c-8.94,0-14.28-5.88-14.28-14.64s5.16-15.66,13.62-15.66c9.48,0,12,8.34,12,13.68a20.34,20.34,0,0,1-.17,2.46Zm15.48-3.78c.06-3.36-1.38-8.58-7.32-8.58-5.34,0-7.68,4.92-8.1,8.58Z"/><path class="cls-3" d="M582.22,101.59c0-3-.06-5.46-.24-7.86h4.68l.3,4.8h.12a10.67,10.67,0,0,1,9.59-5.46c4,0,10.26,2.4,10.26,12.36v17.34h-5.27V106c0-4.68-1.74-8.58-6.72-8.58a7.5,7.5,0,0,0-7.08,5.4,7.59,7.59,0,0,0-.36,2.46v17.46h-5.28Z"/><path class="cls-3" d="M628.24,80.17h5.27v42.6h-5.27Z"/><path class="cls-3" d="M658.47,122.77l-.42-3.66h-.18a10.82,10.82,0,0,1-8.88,4.32c-5.88,0-8.88-4.14-8.88-8.34,0-7,6.24-10.86,17.46-10.8v-.6c0-2.4-.66-6.72-6.6-6.72a14.47,14.47,0,0,0-7.56,2.16l-1.2-3.48a18,18,0,0,1,9.54-2.58c8.88,0,11,6.06,11,11.88v10.86a40.89,40.89,0,0,0,.48,7ZM657.69,108c-5.76-.12-12.3.9-12.3,6.54a4.67,4.67,0,0,0,5,5,7.23,7.23,0,0,0,7-4.86,5.51,5.51,0,0,0,.3-1.68Z"/><path d="M383.88,223.77h-9.09l-7.42-19.63H337.68l-7,19.63h-9.13l26.86-70h8.49Zm-19.19-27-11-29.84a27.32,27.32,0,0,1-1.07-4.68h-.2a26.68,26.68,0,0,1-1.12,4.68l-10.89,29.84Z"/><path d="M401.31,216.54h-.2v30.23h-8v-73h8v8.79h.2q5.91-10,17.28-10,9.68,0,15.09,6.71t5.42,18q0,12.54-6.1,20.09t-16.7,7.54A16.72,16.72,0,0,1,401.31,216.54Zm-.2-20.16v7a14.85,14.85,0,0,0,4,10.52,14.38,14.38,0,0,0,21.63-1.24q4.13-5.56,4.13-15.48,0-8.35-3.86-13.09a12.79,12.79,0,0,0-10.45-4.73,14.18,14.18,0,0,0-11.23,4.86A17.83,17.83,0,0,0,401.11,196.38Z"/><path d="M460.1,216.54h-.2v30.23h-8v-73h8v8.79h.2q5.89-10,17.28-10,9.67,0,15.09,6.71t5.42,18q0,12.54-6.1,20.09t-16.7,7.54A16.72,16.72,0,0,1,460.1,216.54Zm-.2-20.16v7a14.85,14.85,0,0,0,4,10.52,14.38,14.38,0,0,0,21.63-1.24q4.13-5.56,4.13-15.48,0-8.35-3.86-13.09a12.79,12.79,0,0,0-10.45-4.73,14.18,14.18,0,0,0-11.23,4.86A17.83,17.83,0,0,0,459.9,196.38Z"/><path d="M535.88,220.94v-9.67a18.35,18.35,0,0,0,4,2.64,31.3,31.3,0,0,0,4.88,2,38.21,38.21,0,0,0,5.15,1.25,29.1,29.1,0,0,0,4.79.44q7.56,0,11.3-2.81a10.55,10.55,0,0,0,2.49-13,14,14,0,0,0-3.44-3.83,33.57,33.57,0,0,0-5.2-3.32q-3-1.59-6.47-3.35-3.66-1.86-6.84-3.76a30.11,30.11,0,0,1-5.52-4.2,17.41,17.41,0,0,1-3.68-5.2,17.67,17.67,0,0,1,.75-15.13,18,18,0,0,1,5.52-5.84,25.11,25.11,0,0,1,7.79-3.42,35.55,35.55,0,0,1,8.91-1.12q10.35,0,15.09,2.49v9.23q-6.21-4.31-15.92-4.3a26.47,26.47,0,0,0-5.37.56,15.5,15.5,0,0,0-4.79,1.83,10.59,10.59,0,0,0-3.41,3.28,8.66,8.66,0,0,0-1.32,4.88,10,10,0,0,0,1,4.64,11.38,11.38,0,0,0,2.95,3.56,29.52,29.52,0,0,0,4.76,3.13c1.88,1,4,2.11,6.47,3.32s4.89,2.54,7.13,3.9a32.5,32.5,0,0,1,5.91,4.54,20.17,20.17,0,0,1,4,5.52,15.55,15.55,0,0,1,1.49,6.93,17.58,17.58,0,0,1-2,8.77,16.52,16.52,0,0,1-5.47,5.83,23.86,23.86,0,0,1-7.93,3.25,43.3,43.3,0,0,1-9.47,1,38.52,38.52,0,0,1-4.11-.27q-2.43-.27-5-.78a39.73,39.73,0,0,1-4.81-1.27A14.72,14.72,0,0,1,535.88,220.94Z"/><path d="M611.17,223.28a15.47,15.47,0,0,1-7.47,1.56q-13.14,0-13.14-14.64V180.61H582v-6.84h8.59V161.56l8-2.58v14.79h12.6v6.84h-12.6v28.17c0,3.35.57,5.75,1.71,7.18s3,2.15,5.67,2.15a8.45,8.45,0,0,0,5.22-1.66Z"/><path d="M642,224.94q-11.09,0-17.7-7t-6.62-18.58q0-12.6,6.89-19.68t18.6-7.08q11.19,0,17.46,6.88t6.27,19.1q0,12-6.76,19.16T642,224.94Zm.59-45.6q-7.73,0-12.21,5.25t-4.49,14.47q0,8.9,4.54,14t12.16,5.12q7.75,0,11.93-5t4.18-14.31q0-9.37-4.18-14.45T642.57,179.34Z"/><path d="M705.75,181.88a9.75,9.75,0,0,0-6-1.62q-5.13,0-8.57,4.84t-3.45,13.18v25.49h-8v-50h8v10.3h.2a17.49,17.49,0,0,1,5.22-8.22,11.94,11.94,0,0,1,7.86-3,13,13,0,0,1,4.79.69Z"/><path d="M753.31,200.77H718q.19,8.35,4.49,12.89t11.81,4.54a24.56,24.56,0,0,0,15.53-5.56v7.52q-6.58,4.78-17.43,4.78-10.59,0-16.65-6.81t-6-19.16q0-11.67,6.61-19a21.21,21.21,0,0,1,16.43-7.35q9.81,0,15.19,6.35t5.37,17.62Zm-8.2-6.78c0-4.63-1.15-8.22-3.35-10.8a11.4,11.4,0,0,0-9.15-3.85,12.92,12.92,0,0,0-9.62,4A18.37,18.37,0,0,0,718.1,194Z"/></g></svg>