<svg xmlns="http://www.w3.org/2000/svg" viewBox="0 0 915.75 316.81"><defs><style>.cls-1{fill:#eaeded;stroke:#333;stroke-miterlimit:10;stroke-width:4px;}.cls-2{fill:#333;}.cls-3{fill:#ff2c00;}</style></defs><title>Mesa de trabajo 2</title><g id="Capa_2" data-name="Capa 2"><rect class="cls-1" x="21.56" y="12" width="886.9" height="289.8" rx="46.93"/><rect class="cls-2" x="249.92" y="122.99" width="25.02" height="82.34" rx="12.51"/><rect class="cls-2" x="192.2" y="185.35" width="25.02" height="82.34" rx="12.51"/><rect class="cls-2" x="146.59" y="185.35" width="25.02" height="82.34" rx="12.51"/><rect class="cls-2" x="89.11" y="121.37" width="25.02" height="82.34" rx="12.51"/><path class="cls-2" d="M122.2,123H240.87a0,0,0,0,1,0,0v65.84A33.86,33.86,0,0,1,207,222.68H156.06a33.86,33.86,0,0,1-33.86-33.86V123A0,0,0,0,1,122.2,123Z"/><rect class="cls-2" x="152.42" y="46.56" width="1.88" height="40.09" rx="0.94" transform="translate(-12.76 85.6) rotate(-30)"/><rect class="cls-2" x="208.45" y="46.56" width="1.88" height="40.09" rx="0.94" transform="translate(61.36 -95.77) rotate(30)"/><path class="cls-2" d="M181.54,62.31c-32.77,0-59.34,24.36-59.34,54.42H240.87C240.87,86.67,214.3,62.31,181.54,62.31Zm-28.46,38.78a5.79,5.79,0,1,1,5.79-5.79A5.78,5.78,0,0,1,153.08,101.09Zm56.91,0a5.79,5.79,0,1,1,5.79-5.79A5.78,5.78,0,0,1,210,101.09Z"/><path class="cls-3" d="M372.76,102.13c0,13.92-8.46,21.3-18.78,21.3-10.68,0-18.18-8.28-18.18-20.52,0-12.84,8-21.24,18.78-21.24C365.62,81.67,372.76,90.13,372.76,102.13Zm-31.38.66c0,8.64,4.68,16.38,12.9,16.38s13-7.62,13-16.8c0-8-4.2-16.44-12.9-16.44S341.38,93.91,341.38,102.79Z"/><path class="cls-3" d="M379.12,122.77c.12-2,.24-4.92.24-7.5V80.17h5.22V98.41h.12c1.86-3.24,5.22-5.34,9.9-5.34,7.2,0,12.3,6,12.24,14.82,0,10.38-6.54,15.54-13,15.54-4.2,0-7.56-1.62-9.72-5.46h-.18l-.24,4.8Zm5.46-11.64a9.89,9.89,0,0,0,.24,1.92,8.15,8.15,0,0,0,7.92,6.18c5.52,0,8.82-4.5,8.82-11.16,0-5.82-3-10.8-8.64-10.8a8.42,8.42,0,0,0-8,6.48,10.41,10.41,0,0,0-.3,2.16Z"/><path class="cls-3" d="M419.86,85.39v8.34h7.56v4h-7.56v15.66c0,3.6,1,5.64,4,5.64a11.75,11.75,0,0,0,3.06-.36l.24,4a12.93,12.93,0,0,1-4.68.72,7.32,7.32,0,0,1-5.7-2.22c-1.5-1.56-2-4.14-2-7.56V97.75h-4.5v-4h4.5v-7Z"/><path class="cls-3" d="M435.94,109.21c.12,7.14,4.68,10.08,10,10.08a19.09,19.09,0,0,0,8-1.5l.9,3.78a23.52,23.52,0,0,1-9.66,1.8c-8.94,0-14.28-5.88-14.28-14.64s5.16-15.66,13.62-15.66c9.48,0,12,8.34,12,13.68a19.91,19.91,0,0,1-.18,2.46Zm15.48-3.78c.06-3.36-1.38-8.58-7.32-8.58-5.34,0-7.68,4.92-8.1,8.58Z"/><path class="cls-3" d="M463.06,101.59c0-3-.06-5.46-.24-7.86h4.68l.3,4.8h.12a10.68,10.68,0,0,1,9.6-5.46c4,0,10.26,2.4,10.26,12.36v17.34H482.5V106c0-4.68-1.74-8.58-6.72-8.58a7.5,7.5,0,0,0-7.08,5.4,7.59,7.59,0,0,0-.36,2.46v17.46h-5.28Z"/><path class="cls-3" d="M496.36,80.17h5.28v42.6h-5.28Z"/><path class="cls-3" d="M526.6,122.77l-.42-3.66H526a10.82,10.82,0,0,1-8.88,4.32c-5.88,0-8.88-4.14-8.88-8.34,0-7,6.24-10.86,17.46-10.8v-.6c0-2.4-.66-6.72-6.6-6.72a14.47,14.47,0,0,0-7.56,2.16l-1.2-3.48a18,18,0,0,1,9.54-2.58c8.88,0,11,6.06,11,11.88v10.86a40.89,40.89,0,0,0,.48,7ZM525.82,108c-5.76-.12-12.3.9-12.3,6.54a4.67,4.67,0,0,0,5,5,7.23,7.23,0,0,0,7-4.86,5.51,5.51,0,0,0,.3-1.68Z"/><path class="cls-3" d="M555.1,109.21c.12,7.14,4.68,10.08,10,10.08a19.09,19.09,0,0,0,8-1.5l.9,3.78a23.52,23.52,0,0,1-9.66,1.8c-8.94,0-14.28-5.88-14.28-14.64s5.16-15.66,13.62-15.66c9.48,0,12,8.34,12,13.68a20.34,20.34,0,0,1-.17,2.46Zm15.48-3.78c.06-3.36-1.38-8.58-7.32-8.58-5.34,0-7.68,4.92-8.1,8.58Z"/><path class="cls-3" d="M582.22,101.59c0-3-.06-5.46-.24-7.86h4.68l.3,4.8h.12a10.67,10.67,0,0,1,9.59-5.46c4,0,10.26,2.4,10.26,12.36v17.34h-5.27V106c0-4.68-1.74-8.58-6.72-8.58a7.5,7.5,0,0,0-7.08,5.4,7.59,7.59,0,0,0-.36,2.46v17.46h-5.28Z"/><path d="M382,219a46.82,46.82,0,0,1-23.44,5.95q-15,0-24.24-9.67t-9.25-25.58q0-16.26,10.27-26.69t26.05-10.42q11.43,0,19.19,3.71v9.08Q372.11,160,360.49,160q-11.78,0-19.29,8.11t-7.52,21q0,13.29,7,20.88t18.95,7.59a29.3,29.3,0,0,0,14.21-3.27V194.67H358.48v-7.42H382Z"/><path d="M418.1,224.94q-11.09,0-17.7-7t-6.61-18.58q0-12.6,6.88-19.68t18.61-7.08q11.18,0,17.45,6.88t6.28,19.1q0,12-6.77,19.16T418.1,224.94Zm.59-45.6q-7.71,0-12.21,5.25T402,199.06q0,8.9,4.54,14t12.16,5.12c5.18,0,9.15-1.67,11.94-5s4.17-8.13,4.17-14.31-1.39-11.07-4.17-14.45S423.87,179.34,418.69,179.34Z"/><path d="M476.7,224.94q-11.08,0-17.7-7t-6.62-18.58q0-12.6,6.89-19.68t18.6-7.08q11.17,0,17.46,6.88t6.27,19.1q0,12-6.76,19.16T476.7,224.94Zm.58-45.6q-7.71,0-12.2,5.25t-4.5,14.47q0,8.9,4.55,14c3,3.42,7.08,5.12,12.15,5.12s9.16-1.67,11.94-5,4.18-8.13,4.18-14.31-1.4-11.07-4.18-14.45S482.46,179.34,477.28,179.34Z"/><path d="M557.07,219.77q0,27.54-26.37,27.54a35.45,35.45,0,0,1-16.21-3.52v-8q8.44,4.69,16.11,4.69,18.46,0,18.46-19.63v-5.47h-.19q-5.72,9.57-17.19,9.57a18.79,18.79,0,0,1-15-6.66q-5.68-6.67-5.69-17.9,0-12.74,6.13-20.26t16.78-7.52q10.1,0,15,8.1h.19v-6.93h8Zm-8-18.61v-7.37a14.27,14.27,0,0,0-4-10.2,13.22,13.22,0,0,0-10-4.25,13.92,13.92,0,0,0-11.62,5.39q-4.2,5.4-4.2,15.11,0,8.35,4,13.36a13,13,0,0,0,10.67,5,13.94,13.94,0,0,0,11-4.78Q549.05,208.64,549.06,201.16Z"/><path d="M581.29,223.77h-8v-74h8Z"/><path d="M637.68,200.77h-35.3q.2,8.35,4.49,12.89t11.82,4.54a24.58,24.58,0,0,0,15.53-5.56v7.52q-6.6,4.78-17.43,4.78-10.6,0-16.66-6.81t-6-19.16q0-11.67,6.62-19a21.2,21.2,0,0,1,16.43-7.35q9.81,0,15.18,6.35t5.37,17.62Zm-8.2-6.78c0-4.63-1.15-8.22-3.34-10.8s-5.25-3.85-9.16-3.85a12.94,12.94,0,0,0-9.62,4,18.36,18.36,0,0,0-4.88,10.6Z"/><path d="M686.46,197.31v26.46h-8.2v-70H697.5q11.22,0,17.41,5.47t6.17,15.43A21.23,21.23,0,0,1,714.22,191q-6.86,6.34-18.53,6.35Zm0-36.14v28.71h8.6q8.49,0,13-3.88t4.47-11q0-13.86-16.41-13.87Z"/><path d="M741.2,223.77h-8v-74h8Z"/><path d="M793.2,223.77h-8V216H785q-5.24,9-15.38,9-7.47,0-11.7-3.95a13.73,13.73,0,0,1-4.22-10.5q0-14,16.5-16.31l15-2.1q0-12.74-10.3-12.74a24.63,24.63,0,0,0-16.31,6.15v-8.2a31,31,0,0,1,17-4.69q17.64,0,17.63,18.65Zm-8-25.29-12.06,1.66q-5.57.78-8.4,2.76c-1.88,1.32-2.83,3.65-2.83,7a7.62,7.62,0,0,0,2.61,6,10.11,10.11,0,0,0,7,2.32,12.87,12.87,0,0,0,9.84-4.17,14.9,14.9,0,0,0,3.88-10.57Z"/><path d="M848.08,173.77l-23,58q-6.17,15.53-17.29,15.53a18.4,18.4,0,0,1-5.22-.64v-7.18a14.69,14.69,0,0,0,4.73.88q6.06,0,9.08-7.22l4-9.48-19.53-49.9h8.88l13.53,38.48q.24.74,1,3.81h.3c.16-.79.49-2,1-3.72l14.21-38.57Z"/></g></svg>